<?xml version="1.0" encoding="UTF-8"?>
<svg version="1.1" xmlns="http://www.w3.org/2000/svg" width="2000" height="2000">
<path d="M0 0 C5.75709823 3.36861616 9.19419786 8.06595995 11.36328125 14.3203125 C13.13627492 21.62415434 12.38078718 27.0205611 8.80078125 33.6328125 C5.81180964 38.23068031 2.53836195 41.42737779 -2.63671875 43.3828125 C-4.96703537 43.73662038 -7.30031442 44.07173317 -9.63671875 44.3828125 C-9.70665039 44.93053314 -9.77658203 45.47825378 -9.84863281 46.04257202 C-13.44839417 74.21453881 -17.13968315 102.37205654 -21.01171875 130.5078125 C-21.18638672 131.78227234 -21.36105469 133.05673218 -21.54101562 134.36981201 C-22.03652854 137.98127144 -22.53522922 141.59227427 -23.03515625 145.203125 C-23.18278412 146.27987488 -23.33041199 147.35662476 -23.48251343 148.46600342 C-23.68912094 149.94873749 -23.68912094 149.94873749 -23.89990234 151.46142578 C-24.01868744 152.32003204 -24.13747253 153.17863831 -24.25985718 154.06326294 C-24.60897268 156.21203789 -25.07303412 158.28128251 -25.63671875 160.3828125 C-24.75628906 160.03347656 -23.87585938 159.68414063 -22.96875 159.32421875 C-21.80730469 158.86917969 -20.64585937 158.41414062 -19.44921875 157.9453125 C-18.30066406 157.49285156 -17.15210938 157.04039062 -15.96875 156.57421875 C-10.49740906 154.61787762 -5.828417 154.24633972 -0.01171875 154.2578125 C1.30054688 154.25523437 2.6128125 154.25265625 3.96484375 154.25 C7.36328125 154.3828125 7.36328125 154.3828125 10.36328125 155.3828125 C10.4605249 154.82045898 10.55776855 154.25810547 10.65795898 153.67871094 C12.05106962 146.15937936 14.15432629 138.929383 16.42578125 131.6328125 C16.62203094 131.0022998 16.81828064 130.37178711 17.02047729 129.72216797 C25.47982794 102.69312673 34.88349265 77.47312687 60.70703125 62.72265625 C81.9799741 51.99233361 104.42681545 50.96596675 127.73828125 51.0078125 C129.45069 51.00862823 129.45069 51.00862823 131.19769287 51.00946045 C153.12843127 51.05714509 174.62659146 52.56781326 196.36328125 55.3828125 C197.19762695 55.48936157 198.03197266 55.59591064 198.89160156 55.70568848 C280.22322019 66.12133764 366.40866753 78.92688136 515.36328125 144.3828125 C534.74980456 170.23151025 529.52182349 207.77928163 529.36328125 238.3828125 C530.1625 238.63933594 530.96171875 238.89585937 531.78515625 239.16015625 C532.8834375 239.54300781 533.98171875 239.92585937 535.11328125 240.3203125 C536.180625 240.67996094 537.24796875 241.03960938 538.34765625 241.41015625 C544.28980979 243.91389067 549.32359949 248.42550985 554.36328125 252.3828125 C554.57760048 251.25817093 554.57760048 251.25817093 554.79624939 250.11080933 C556.62939698 240.49281979 558.46435799 230.87517711 560.30078125 221.2578125 C560.44748135 220.48953629 560.59418144 219.72126007 560.745327 218.92970276 C565.87563641 192.06577099 571.07216302 165.2155964 576.36328125 138.3828125 C575.57848389 138.09003418 574.79368652 137.79725586 573.98510742 137.49560547 C571.03268917 136.24249788 569.72330347 134.94643447 567.67578125 132.5078125 C567.09441406 131.82976562 566.51304687 131.15171875 565.9140625 130.453125 C562.1435572 125.41945293 561.29199932 120.61107077 561.36328125 114.3828125 C562.52986173 107.66525323 564.57391728 102.07525532 570.29296875 98.01171875 C576.96100518 93.70069886 582.41075728 92.47722404 590.36328125 93.3828125 C597.18258037 95.55524636 602.54066607 99.287291 606.36328125 105.3828125 C609.41214327 111.6382363 609.51677796 119.11418396 607.7109375 125.796875 C604.79311839 132.28370032 599.72065298 136.63742624 593.17578125 139.2578125 C589.36328125 140.3828125 589.36328125 140.3828125 585.36328125 140.3828125 C585.12375732 142.18008789 585.12375732 142.18008789 584.87939453 144.01367188 C584.08476087 149.97037445 583.2867761 155.92662644 582.48828125 161.8828125 C582.33865936 162.99996643 582.18903748 164.11712036 582.03488159 165.26812744 C580.07147827 179.91185996 578.06963795 194.54959189 576.01875305 209.18131256 C575.67299894 211.64823081 575.32771485 214.11521444 574.98254395 216.58221436 C573.9590214 223.89501913 572.93359229 231.20753 571.89908123 238.51878929 C571.46678193 241.57981296 571.03781327 244.64129719 570.60963631 247.70289993 C570.40861392 249.13474921 570.20612702 250.56639376 570.00207329 251.99781418 C569.72099504 253.97050196 569.44545759 255.94397683 569.17016602 257.91748047 C568.93536278 259.58083939 568.93536278 259.58083939 568.69581604 261.27780151 C568.36537014 264.36330768 568.17097562 267.28407793 568.36328125 270.3828125 C570.22464175 272.13008537 570.22464175 272.13008537 572.80078125 273.2578125 C585.24664161 280.0863593 593.77075502 290.56135096 597.890625 304.28515625 C600.58300695 316.23399186 599.29791416 327.79232304 597.3515625 339.7578125 C597.13886743 341.09806991 596.92665368 342.43840378 596.71488953 343.77880859 C596.27191873 346.56657764 595.82135001 349.35298454 595.36547852 352.13867188 C594.78864148 355.66901619 594.23400061 359.20243852 593.68545246 362.73727417 C593.25363197 365.49996115 592.80838619 368.26036619 592.35948753 371.02032471 C592.04960476 372.94242241 591.75179852 374.86645507 591.454422 376.79052734 C588.84637657 392.43051934 583.18793447 406.58275314 570.61328125 416.82421875 C561.2343365 423.32109193 550.71396403 427.18205489 539.30078125 427.6328125 C533.92960744 428.03479525 530.63569366 430.60889863 526.28125 433.59375 C517.96265443 438.69404019 508.96618589 440.07560722 499.36328125 439.3828125 C499.069375 440.87941406 499.069375 440.87941406 498.76953125 442.40625 C496.80045747 452.00876266 494.29377666 461.38426549 491.42578125 470.7578125 C491.10222656 471.82563965 490.77867187 472.8934668 490.4453125 473.99365234 C487.38905892 483.81277658 484.29029647 493.66207663 477.86328125 501.8203125 C476.765 503.24150391 476.765 503.24150391 475.64453125 504.69140625 C473.34225482 507.40761937 470.90266509 509.88899672 468.36328125 512.3828125 C467.88246094 512.93324219 467.40164063 513.48367188 466.90625 514.05078125 C452.69606907 529.98092644 429.46894765 536.89732955 409.36328125 541.3828125 C408.62086182 541.57045166 407.87844238 541.75809082 407.11352539 541.95141602 C397.09383361 544.18830101 386.75808386 543.72786649 376.55078125 543.6953125 C375.01115723 543.6950708 375.01115723 543.6950708 373.44042969 543.69482422 C354.49208908 543.67424737 335.74781973 542.54391307 316.90039062 540.65820312 C313.37228212 540.38351329 309.90048586 540.33510454 306.36328125 540.3828125 C311.36904681 545.99903727 315.19007717 546.96396667 322.60961914 547.70800781 C344.74205132 550.00197475 364.84199667 566.53636638 380.36328125 581.3828125 C381.03359375 582.0015625 381.70390625 582.6203125 382.39453125 583.2578125 C397.89794028 598.02296396 410.02483238 618.4599574 415.05078125 639.2578125 C416.91264412 645.68123941 419.99597242 647.87246342 425.4921875 651.390625 C452.85652798 670.37812656 461.04786362 719.21608249 466.90673828 749.06201172 C467.28940194 751.00725274 467.69648898 752.94766763 468.109375 754.88671875 C469.43601538 761.90418889 469.56065256 768.88652873 469.61328125 776.0078125 C469.62270752 776.96236328 469.63213379 777.91691406 469.6418457 778.90039062 C469.6149233 784.79690429 468.98878192 790.29359112 467.77368164 796.06518555 C466.96638444 800.6241816 468.09879536 803.77978468 469.92578125 807.9453125 C474.1215137 818.96693804 470.72988451 830.0358613 466.36328125 840.3828125 C464.43159592 844.11447735 462.35388655 847.3922072 459.36328125 850.3828125 C455.34223368 850.82959556 453.22571709 851.0636829 449.98828125 848.5078125 C448.36328125 846.3828125 448.36328125 846.3828125 447.36328125 844.3828125 C447.10675781 845.02347656 446.85023438 845.66414063 446.5859375 846.32421875 C442.86924096 854.72119981 437.64337226 859.76543167 429.17578125 863.3828125 C425.27094378 864.40703217 423.16076336 864.70751556 419.36328125 863.3828125 C417.42578125 861.7578125 417.42578125 861.7578125 416.36328125 859.3828125 C416.08806878 852.36489454 420.11356855 848.45654357 424.36328125 843.3828125 C425.91806054 841.40320619 427.12812214 839.59580591 428.36328125 837.3828125 C428.01125243 835.24907035 428.01125243 835.24907035 427.36328125 833.3828125 C427.05197266 834.218125 427.05197266 834.218125 426.734375 835.0703125 C422.63698786 845.21948902 415.03121924 853.58253392 405.140625 858.484375 C398.68275286 860.92173768 391.84848889 861.66309286 385.30078125 859.2578125 C383.36328125 857.3828125 383.36328125 857.3828125 382.36328125 854.5078125 C382.36328125 850.62342614 382.97246678 849.44287041 385.36328125 846.3828125 C387.32772118 845.1450955 389.35681625 844.11013881 391.42016602 843.04614258 C397.55639818 839.80127457 402.21649798 836.99655149 404.59375 830.21875 C405.91731732 825.34042192 406.79153845 820.40308316 407.36328125 815.3828125 C406.59628906 815.08632812 405.82929687 814.78984375 405.0390625 814.484375 C402.2887095 813.35211289 399.87788736 811.96342205 397.36328125 810.3828125 C397.12996094 811.16914062 396.89664063 811.95546875 396.65625 812.765625 C394.98568932 817.4391573 392.87228948 821.81194773 390.67578125 826.2578125 C390.26650391 827.11761719 389.85722656 827.97742187 389.43554688 828.86328125 C386.58404024 834.63637764 383.36128824 840.19757978 378.36328125 844.3828125 C375.14811383 845.40705753 373.8017645 845.1278172 370.36328125 844.3828125 C367.408768 841.70528487 367.0867454 838.70986463 366.80078125 834.8828125 C367.2134288 820.34189872 373.77080125 805.60802578 379.36328125 792.3828125 C380.76091525 789.32985311 380.76091525 789.32985311 378.95703125 786.328125 C378.26283729 785.05265431 377.56459925 783.77937996 376.86328125 782.5078125 C360.49401539 751.10208287 354.76394879 708.91773166 363.36328125 674.3828125 C364.34729579 671.37610141 365.39495392 668.4935117 366.69140625 665.609375 C368.10816826 660.9142916 365.78699206 656.84623212 363.703125 652.6640625 C363.16083252 651.57311279 362.61854004 650.48216309 362.05981445 649.3581543 C361.4793335 648.2112915 360.89885254 647.06442871 360.30078125 645.8828125 C359.7080542 644.70823486 359.11532715 643.53365723 358.50463867 642.32348633 C351.52005991 628.60680642 343.73916231 614.05920573 332.36328125 603.3828125 C330.38328125 604.0428125 328.40328125 604.7028125 326.36328125 605.3828125 C326.87117188 606.51074219 327.3790625 607.63867188 327.90234375 608.80078125 C351.23028988 661.67138859 357.81803003 729.98462673 336.80102539 784.64526367 C332.18898476 796.03997252 326.44354168 806.07827019 318.36328125 815.3828125 C317.50859583 816.48657767 316.65435511 817.5906875 315.80078125 818.6953125 C313.72067257 820.98876566 312.28948928 822.11878311 309.73828125 823.6953125 C306.02991034 826.17288789 305.19336791 828.73512036 304.26171875 833.00390625 C303.36328125 835.3828125 303.36328125 835.3828125 300.70703125 838.19921875 C297.98360593 841.20705465 297.98360593 841.20705465 298.49609375 844.9765625 C298.80031379 846.28509334 299.13256309 847.58733291 299.48828125 848.8828125 C299.81598801 850.30850919 300.13750958 851.7356404 300.453125 853.1640625 C300.61409668 853.87433594 300.77506836 854.58460938 300.94091797 855.31640625 C303.64029394 868.52306418 302.69776572 882.84903602 301.92578125 896.2578125 C301.88517578 896.97130859 301.84457031 897.68480469 301.80273438 898.41992188 C301.55441189 902.38937534 301.09393508 906.26721483 300.48828125 910.1953125 C300.16319325 912.44018462 300.16319325 912.44018462 300.36328125 914.3828125 C302.64865052 916.57785738 302.64865052 916.57785738 305.36328125 918.3828125 C306.50087306 921.08255191 306.89045685 923.4513012 307.36328125 926.3828125 C307.03328125 927.0428125 306.70328125 927.7028125 306.36328125 928.3828125 C307.08773437 928.46660156 307.8121875 928.55039063 308.55859375 928.63671875 C316.32054555 930.70152765 322.54478362 939.13636063 326.78125 945.625 C334.2370017 958.62194 338.20016832 973.48682665 341.41796875 988.0390625 C343.35027178 997.20573663 343.35027178 997.20573663 348.71875 1004.6328125 C355.71880869 1012.08180607 361.33043143 1023.91646756 361.86328125 1034.1953125 C361.61393717 1038.55883389 360.3854964 1041.13393121 357.36328125 1044.3828125 C348.1639081 1050.88429257 335.62670681 1051.87035959 324.73828125 1052.5703125 C323.57240479 1052.64854248 322.40652832 1052.72677246 321.20532227 1052.80737305 C248.92167743 1057.26884591 248.92167743 1057.26884591 226.55859375 1039.98828125 C225.17578125 1038.6328125 225.17578125 1038.6328125 223.36328125 1036.3828125 C223.03328125 1036.0528125 222.70328125 1035.7228125 222.36328125 1035.3828125 C221.92909531 1025.76318174 223.1682804 1016.24722136 224.17578125 1006.6953125 C224.54864592 1003.11476588 224.91909331 999.53397184 225.2890625 995.953125 C225.38184479 995.05996078 225.47462708 994.16679657 225.57022095 993.24656677 C226.15339232 987.58500646 226.6783539 981.92134382 227.15625 976.25 C227.27798275 974.84722709 227.39996482 973.4444758 227.5222168 972.04174805 C227.74251949 969.47649114 227.95180349 966.91025322 228.14770508 964.34301758 C229.13246873 953.16552263 232.07004025 943.1347017 239.36328125 934.3828125 C240.06324219 933.90714844 240.76320313 933.43148437 241.484375 932.94140625 C243.93952616 930.90480477 244.01805606 929.5618326 244.42578125 926.4453125 C245.05323449 921.7711384 245.05323449 921.7711384 246.94140625 919.40625 C248.87011727 916.66154586 248.48377639 915.23869975 248.05078125 911.9453125 C246.27548923 894.25156868 245.64906081 873.63375103 250.36328125 856.3828125 C249.67621094 856.20105469 248.98914062 856.01929688 248.28125 855.83203125 C246.92966797 855.45498047 246.92966797 855.45498047 245.55078125 855.0703125 C244.65746094 854.82667969 243.76414062 854.58304688 242.84375 854.33203125 C240.36328125 853.3828125 240.36328125 853.3828125 239.10961914 851.8046875 C237.36837763 850.09208063 237.36837763 850.09208063 234.50097656 850.30200195 C233.32631836 850.42792725 232.15166016 850.55385254 230.94140625 850.68359375 C222.20743534 851.48352841 213.52466063 851.56892588 204.75830078 851.56811523 C202.130368 851.57029831 199.50285897 851.58852877 196.875 851.60742188 C187.38010183 851.63681201 178.0978487 851.25950154 168.67840576 849.99687195 C161.80426758 849.12135798 156.13795274 849.62648116 149.92578125 852.9453125 C149.06082031 853.40035156 148.19585938 853.85539062 147.3046875 854.32421875 C146.34369141 854.84822266 146.34369141 854.84822266 145.36328125 855.3828125 C145.43546875 856.64609375 145.50765625 857.909375 145.58203125 859.2109375 C146.1670741 870.16256564 146.49230381 881.10286918 146.55078125 892.0703125 C146.56367187 893.2262793 146.5765625 894.38224609 146.58984375 895.57324219 C146.59810195 902.72690675 145.91621171 909.39770489 144.36328125 916.3828125 C145.00676514 916.65971924 145.65024902 916.93662598 146.31323242 917.22192383 C148.36328125 918.3828125 148.36328125 918.3828125 149.1640625 920.95703125 C149.33292969 921.98441406 149.50179688 923.01179688 149.67578125 924.0703125 C150.87627899 929.5939141 152.40093819 931.91928574 156.5859375 935.546875 C164.80315217 944.03498686 165.67470496 957.77074049 166.58203125 968.88671875 C166.68543823 970.08280258 166.78884521 971.27888641 166.89538574 972.51121521 C167.22412614 976.32208772 167.54433245 980.133609 167.86328125 983.9453125 C168.28592329 988.94700285 168.71288443 993.94829747 169.14453125 998.94921875 C169.24709229 1000.14237701 169.34965332 1001.33553528 169.45532227 1002.56484985 C170.10236347 1009.91914334 170.8973255 1017.21776281 172.01367188 1024.51538086 C172.96986445 1032.35789606 172.96986445 1032.35789606 170.55078125 1036.4453125 C157.05111659 1050.84746171 124.94988419 1051.80761856 106.39282227 1052.49243164 C48.38633683 1053.63018708 48.38633683 1053.63018708 34.42578125 1040.5703125 C31.43704039 1034.4170225 32.21241397 1030.01666665 34.30078125 1023.6953125 C37.42524344 1015.57869285 41.58588742 1007.66917111 47.36547852 1001.11083984 C49.62463942 998.0259243 50.38755209 995.59733126 51.29296875 991.89453125 C51.76887451 990.00988159 51.76887451 990.00988159 52.25439453 988.0871582 C52.41490295 987.43043121 52.57541138 986.77370422 52.74078369 986.09707642 C53.57671076 982.69157865 54.46066601 979.29875086 55.34765625 975.90625 C55.52044098 975.24436172 55.69322571 974.58247345 55.87124634 973.90052795 C60.31643992 957.06852124 66.976434 939.22330122 81.73828125 928.7578125 C84.36328125 927.3828125 84.36328125 927.3828125 87.36328125 927.3828125 C87.28078125 926.3515625 87.19828125 925.3203125 87.11328125 924.2578125 C87.40354566 919.7587141 88.56007703 917.84559418 91.36328125 914.3828125 C92.02328125 914.0528125 92.68328125 913.7228125 93.36328125 913.3828125 C93.29399414 912.75729492 93.22470703 912.13177734 93.15332031 911.48730469 C92.2389438 902.13202898 92.14292941 892.8032943 92.12304688 883.41210938 C92.1133488 880.65203615 92.08223309 877.89271187 92.05078125 875.1328125 C91.99465809 865.26883514 92.59173215 856.15226766 94.81347656 846.52636719 C95.72620017 841.30779293 94.21866892 838.99323338 91.30078125 834.7578125 C88.92573979 830.97328382 88.07458152 828.82267466 88.55078125 824.3828125 C88.76590794 821.07395911 88.67644277 819.81359337 86.69921875 817.09375 C85.1233281 815.4745359 83.53659535 813.86583042 81.94140625 812.265625 C55.8542919 783.09548805 52.98545185 735.24149785 54.86941528 698.31399536 C56.60544839 667.37070954 62.53990651 636.71896276 75.36328125 608.3828125 C74.01169922 607.98835938 74.01169922 607.98835938 72.6328125 607.5859375 C67.93484769 605.85717626 64.63193525 603.15073585 61.36328125 599.3828125 C60.36328125 595.9453125 60.36328125 595.9453125 60.36328125 593.3828125 C59.06648438 593.27066406 57.7696875 593.15851562 56.43359375 593.04296875 C51.50183861 592.48975782 46.96459543 591.29927548 42.23828125 589.8203125 C41.38572754 589.55782715 40.53317383 589.2953418 39.65478516 589.02490234 C-8.02611091 574.15536679 -59.69535371 550.19237473 -87.5859375 506.31640625 C-90.92314098 500.85781922 -90.92314098 500.85781922 -96.0546875 497.35546875 C-98.91909618 496.84351388 -101.73576328 496.60735587 -104.63671875 496.3828125 C-118.26893613 494.12269671 -127.59452776 490.60247453 -138.63671875 482.3828125 C-139.39339844 481.85816406 -140.15007812 481.33351563 -140.9296875 480.79296875 C-141.49300781 480.32761719 -142.05632812 479.86226562 -142.63671875 479.3828125 C-142.63671875 478.7228125 -142.63671875 478.0628125 -142.63671875 477.3828125 C-143.21421875 477.13660156 -143.79171875 476.89039063 -144.38671875 476.63671875 C-164.6439749 465.34751871 -178.20779867 431.40586048 -187.63671875 411.3828125 C-187.97155273 410.67592285 -188.30638672 409.9690332 -188.65136719 409.24072266 C-209.07081707 365.78468214 -209.07081707 365.78468214 -202.38671875 346.44921875 C-199.660922 338.44984752 -198.95984973 333.43178782 -202.62939453 325.56713867 C-204.46894504 321.99492781 -206.38271707 318.46683936 -208.31542969 314.94433594 C-210.30346588 311.09021995 -211.75508799 307.11166623 -213.13671875 303.0078125 C-213.36665527 302.33685547 -213.5965918 301.66589844 -213.83349609 300.97460938 C-214.45662095 299.11793245 -215.04734864 297.2504786 -215.63671875 295.3828125 C-216.01054688 294.22523438 -216.384375 293.06765625 -216.76953125 291.875 C-218.53018502 284.78479967 -219.43319661 275.61099283 -215.76171875 269.0078125 C-213.32007038 265.99165863 -212.67249026 265.50051381 -208.88671875 265.0703125 C-202.33791073 265.70000558 -198.56251785 270.23352179 -194.48022461 274.96191406 C-191.16928555 279.30985099 -188.81875956 284.13119458 -186.38671875 289.0078125 C-185.61328125 290.52375 -185.61328125 290.52375 -184.82421875 292.0703125 C-183.41633069 294.83528853 -182.02302856 297.6069689 -180.63671875 300.3828125 C-180.29833984 301.05795898 -179.95996094 301.73310547 -179.61132812 302.42871094 C-178.95154695 303.74595556 -178.29377224 305.06420516 -177.63671875 306.3828125 C-176.97671875 306.3828125 -176.31671875 306.3828125 -175.63671875 306.3828125 C-176.23882507 300.49643095 -177.90652917 295.37716403 -179.88671875 289.8203125 C-184.65446558 275.88097506 -188.99373426 261.59799952 -189.19921875 246.7578125 C-189.2139624 246.06526367 -189.22870605 245.37271484 -189.24389648 244.65917969 C-189.17433455 241.34853145 -188.82335555 239.62395038 -186.77734375 236.98046875 C-183.93995703 234.86278414 -182.18070509 234.45230243 -178.63671875 234.3828125 C-173.3668726 236.04697444 -170.27417137 238.2790198 -166.63671875 242.3828125 C-165.96382812 243.06923828 -165.96382812 243.06923828 -165.27734375 243.76953125 C-155.88038806 253.79800278 -141.63671875 277.18325424 -141.63671875 291.3828125 C-140.97671875 291.0528125 -140.31671875 290.7228125 -139.63671875 290.3828125 C-139.83305908 289.7343335 -140.02939941 289.08585449 -140.23168945 288.41772461 C-154.28270317 241.78058093 -154.28270317 241.78058093 -148.63671875 228.3828125 C-146.88671875 226.2578125 -146.88671875 226.2578125 -144.63671875 225.3828125 C-140.36515419 225.3828125 -137.39698137 226.62008894 -134.25 229.53125 C-122.9898819 242.45448482 -106.63671875 271.03268242 -106.63671875 288.3828125 C-104.32671875 288.7128125 -102.01671875 289.0428125 -99.63671875 289.3828125 C-99.69110107 288.59036133 -99.7454834 287.79791016 -99.80151367 286.98144531 C-100.28448037 273.24495234 -97.86456714 259.84899069 -95.63891602 246.34570312 C-95.05987596 242.83024127 -94.50591507 239.31135018 -93.95888996 235.79078293 C-93.52774293 233.03660116 -93.08233203 230.2848631 -92.63292503 227.53360748 C-92.3228636 225.61869231 -92.02514581 223.7017911 -91.7278595 221.78485107 C-88.93255779 205.15631015 -82.05115338 191.73045934 -68.5546875 181.32421875 C-60.18604049 175.75632375 -51.49315172 173.6391319 -41.63671875 172.3828125 C-41.58802895 171.72640809 -41.53933914 171.07000368 -41.48917389 170.39370823 C-40.91429699 163.34531311 -39.88707099 156.46986547 -38.61132812 149.51733398 C-38.40796341 148.38752609 -38.20459869 147.2577182 -37.99507141 146.09367371 C-37.32824532 142.39621547 -36.65454233 138.7000495 -35.98046875 135.00390625 C-35.51313798 132.42373028 -35.04614278 129.84349351 -34.57946777 127.26319885 C-33.60431658 121.87562347 -32.62538175 116.48874648 -31.64404297 111.10229492 C-30.50944978 104.87443461 -29.38048502 98.64557414 -28.2545619 92.41614097 C-27.16878537 86.40934829 -26.07947623 80.40320275 -24.98847961 74.39735603 C-24.52515532 71.84531524 -24.06266012 69.29312378 -23.60099792 66.74078178 C-22.95775471 63.18787095 -22.31051314 59.63571237 -21.66210938 56.08374023 C-21.47091019 55.02352661 -21.279711 53.96331299 -21.0827179 52.87097168 C-20.81777779 51.42663002 -20.81777779 51.42663002 -20.54748535 49.95310974 C-20.31852444 48.69416979 -20.31852444 48.69416979 -20.08493805 47.40979671 C-19.63671875 45.3828125 -19.63671875 45.3828125 -18.63671875 43.3828125 C-19.48234375 43.1971875 -20.32796875 43.0115625 -21.19921875 42.8203125 C-26.91304517 40.43089418 -30.34568105 36.46513137 -33.57421875 31.2578125 C-35.93533755 24.72046481 -35.90888705 16.29887939 -33.07421875 9.9453125 C-25.77359539 -2.23953072 -12.6274591 -5.61656812 0 0 Z M-58.63671875 335.3828125 C-57.66012382 340.79847531 -56.4648919 346.05801429 -54.96142578 351.35351562 C-46.48991181 381.65621849 -34.68345611 431.73660433 -44.43286133 462.64233398 C-45.4002349 465.75987995 -45.84837061 468.10220872 -45.63671875 471.3828125 C-42.31179759 477.16448096 -36.75928889 481.26937409 -31.63671875 485.3828125 C-30.18458984 486.63191406 -30.18458984 486.63191406 -28.703125 487.90625 C-26.06603531 490.1397435 -23.36793105 492.26583324 -20.63671875 494.3828125 C-19.63253906 495.19234375 -18.62835937 496.001875 -17.59375 496.8359375 C8.59420656 517.79195018 41.16693623 529.24343302 72.86328125 539.1328125 C74.04519043 539.51143433 74.04519043 539.51143433 75.25097656 539.89770508 C80.4093676 541.43391914 84.47064252 541.82913187 89.36328125 539.3828125 C97.83724074 538.81788187 107.32485527 539.87855033 114.99609375 543.69140625 C115.77726563 543.91957031 116.5584375 544.14773438 117.36328125 544.3828125 C119.82214923 543.13394327 119.82214923 543.13394327 121.98828125 541.0703125 C125.93950368 537.638278 128.57295982 536.31255914 133.8125 536.06640625 C134.57651123 536.02829834 135.34052246 535.99019043 136.12768555 535.95092773 C137.09230713 535.90782471 138.05692871 535.86472168 139.05078125 535.8203125 C143.66046875 535.60375 143.66046875 535.60375 148.36328125 535.3828125 C148.36328125 528.7828125 148.36328125 522.1828125 148.36328125 515.3828125 C139.48738428 512.92777717 130.59529315 510.72694159 121.61328125 508.6953125 C51.54943055 492.72038158 51.54943055 492.72038158 30.36328125 480.3828125 C29.61046875 479.95033203 28.85765625 479.51785156 28.08203125 479.07226562 C11.96750142 469.74624309 11.96750142 469.74624309 5.67578125 463.52734375 C4.40229191 462.16373476 4.40229191 462.16373476 2.36328125 462.3828125 C2.36328125 461.7228125 2.36328125 461.0628125 2.36328125 460.3828125 C0.98659776 459.04372431 0.98659776 459.04372431 -0.79296875 457.69140625 C-4.48961964 454.61861168 -7.32955264 451.33199911 -10.13671875 447.4453125 C-10.6059375 446.79852539 -11.07515625 446.15173828 -11.55859375 445.48535156 C-21.34597773 431.57731759 -26.75455559 415.89754 -26.76953125 398.82421875 C-26.77096634 397.76399757 -26.77096634 397.76399757 -26.77243042 396.68235779 C-26.77310727 395.19066275 -26.77128769 393.69896468 -26.76708984 392.20727539 C-26.76180708 389.98251282 -26.767014 387.75795891 -26.7734375 385.53320312 C-26.77749287 375.78126675 -26.35984572 366.10714063 -25.63671875 356.3828125 C-26.70921875 356.0115625 -27.78171875 355.6403125 -28.88671875 355.2578125 C-39.41110212 351.24144005 -47.62814934 346.36098886 -55.63671875 338.3828125 C-56.22324219 337.79886719 -56.80976562 337.21492188 -57.4140625 336.61328125 C-57.81753906 336.20722656 -58.22101563 335.80117188 -58.63671875 335.3828125 Z M281.36328125 537.3828125 C282.94765039 539.52725892 282.94765039 539.52725892 285.36328125 541.3828125 C288.54592087 541.725032 288.54592087 541.725032 291.92578125 541.2578125 C293.06144531 541.15210938 294.19710938 541.04640625 295.3671875 540.9375 C298.53162136 540.55511402 298.53162136 540.55511402 301.36328125 538.3828125 C294.66714929 537.5849755 288.10561544 537.25370397 281.36328125 537.3828125 Z M448.36328125 818.3828125 C448.69328125 823.9928125 449.02328125 829.6028125 449.36328125 835.3828125 C451.90456925 830.3002365 452.66667482 827.04615915 452.36328125 821.3828125 C451.70328125 820.3928125 451.04328125 819.4028125 450.36328125 818.3828125 C449.70328125 818.3828125 449.04328125 818.3828125 448.36328125 818.3828125 Z M448.36328125 836.3828125 C449.36328125 839.3828125 449.36328125 839.3828125 449.36328125 839.3828125 Z " fill="#FEFEFE" transform="translate(804.63671875,474.6171875)"/>
<path d="M0 0 C0.9499585 -0.00828827 1.89991699 -0.01657654 2.87866211 -0.02511597 C5.99478558 -0.04451158 9.11038746 -0.04440035 12.2265625 -0.0390625 C13.30947571 -0.03918335 14.39238892 -0.0393042 15.50811768 -0.03942871 C41.39457166 0.00113458 67.09259507 1.89887433 92.8515625 4.3359375 C93.7703418 4.42270752 94.68912109 4.50947754 95.63574219 4.59887695 C113.40972716 6.29465689 131.10649507 8.31349383 148.64501953 11.72021484 C151.6681288 12.30071443 154.69509113 12.85648993 157.72392273 13.40623474 C189.84727011 19.25592859 221.53199179 27.11155316 252.8515625 36.3359375 C253.58552246 36.55024414 254.31948242 36.76455078 255.07568359 36.98535156 C259.69824321 38.34473539 264.28411348 39.80119053 268.8515625 41.3359375 C270.08156982 41.74682617 270.08156982 41.74682617 271.33642578 42.16601562 C294.25691234 49.91355005 320.19023952 59.89569889 334.8515625 80.3359375 C335.41230469 81.10550781 335.97304687 81.87507812 336.55078125 82.66796875 C340.10221315 88.26598852 341.51967592 93.6920302 342.48828125 100.1484375 C342.67898193 101.40320389 342.67898193 101.40320389 342.87353516 102.68331909 C344.05559532 110.95783791 344.40124428 119.11183572 344.3515625 127.4609375 C344.35013245 128.26030731 344.34870239 129.05967712 344.347229 129.88327026 C344.1386008 178.63921039 337.96520251 228.67753385 328.40429688 276.47412109 C327.67822667 280.23339449 327.05801559 284.0065506 326.43896484 287.78466797 C313.11745739 368.48740106 313.11745739 368.48740106 285.5390625 389.6484375 C272.22161096 398.75341855 257.14015279 404.81790912 241.14453125 406.9765625 C238.82936742 407.22064841 238.82936742 407.22064841 236.8515625 408.3359375 C227.51466991 408.88786742 218.14846215 408.0343595 208.85107422 407.21899414 C206.6188603 407.02494125 204.38581193 406.84497785 202.15234375 406.66601562 C193.21424237 405.91717935 184.48155931 404.66557909 175.66552734 403.02514648 C170.88859557 402.16192293 166.10962858 401.57354476 161.2890625 401.0234375 C151.77470135 399.86046232 142.38448578 398.20673353 132.9765625 396.3984375 C120.28323596 393.95922575 107.57300431 391.76672989 94.79785156 389.79492188 C91.91538136 389.34587945 89.03556118 388.88290259 86.15625 388.4140625 C73.06958643 386.28523692 59.96493592 384.29189958 46.8515625 382.3359375 C35.40710319 380.62862484 23.96506553 378.91353129 12.5390625 377.0859375 C11.12077148 376.85970703 11.12077148 376.85970703 9.67382812 376.62890625 C3.38396196 375.61337877 -2.88350932 374.49461459 -9.1484375 373.3359375 C-10.84021118 373.0270459 -10.84021118 373.0270459 -12.56616211 372.71191406 C-43.40373951 367.04942067 -69.82973044 361.29696785 -94.1484375 340.3359375 C-95.18871094 339.44841797 -95.18871094 339.44841797 -96.25 338.54296875 C-108.15490564 327.53500805 -117.50505904 310.64586058 -118.35180664 294.44482422 C-118.48239034 289.67930434 -118.481193 284.9153635 -118.4609375 280.1484375 C-118.45944702 279.2865683 -118.45795654 278.4246991 -118.4564209 277.53671265 C-118.40624649 261.32008245 -117.26389545 245.42425481 -115.1484375 229.3359375 C-115.00390137 228.21348633 -114.85936523 227.09103516 -114.71044922 225.93457031 C-113.63597383 217.71715386 -112.41744979 209.52533801 -111.1484375 201.3359375 C-111.04037781 200.63386169 -110.93231812 199.93178589 -110.82098389 199.20843506 C-103.99163506 154.85250507 -95.78572193 110.16705231 -82.1484375 67.3359375 C-81.86935547 66.43343262 -81.59027344 65.53092773 -81.30273438 64.60107422 C-74.43583529 42.42443145 -67.44081085 22.41303376 -46.078125 10.64453125 C-31.87368101 3.68191067 -15.80377645 0.04379351 0 0 Z " fill="#36352F" transform="translate(943.1484375,567.6640625)"/>
<path d="M0 0 C1.515625 1.33984375 1.515625 1.33984375 3.0625 2.9375 C6.96682063 6.69887068 11.01341251 6.80035268 16.24829102 7.32543945 C38.37943143 9.61880778 58.4798445 26.15463387 74 41 C74.6703125 41.61875 75.340625 42.2375 76.03125 42.875 C91.53465903 57.64015146 103.66155113 78.0771449 108.6875 98.875 C110.54936287 105.29842691 113.63269117 107.48965092 119.12890625 111.0078125 C146.49324673 129.99531406 154.68458237 178.83326999 160.54345703 208.67919922 C160.92612069 210.62444024 161.33320773 212.56485513 161.74609375 214.50390625 C163.07273413 221.52137639 163.19737131 228.50371623 163.25 235.625 C163.2641394 237.05682617 163.2641394 237.05682617 163.27856445 238.51757812 C163.25164205 244.41409179 162.62550067 249.91077862 161.41040039 255.68237305 C160.60310319 260.2413691 161.73551411 263.39697218 163.5625 267.5625 C167.75823245 278.58412554 164.36660326 289.6530488 160 300 C158.06831467 303.73166485 155.9906053 307.0093947 153 310 C148.97895243 310.44678306 146.86243584 310.6808704 143.625 308.125 C142 306 142 306 141 304 C140.74347656 304.64066406 140.48695313 305.28132813 140.22265625 305.94140625 C136.50595971 314.33838731 131.28009101 319.38261917 122.8125 323 C118.90766253 324.02421967 116.79748211 324.32470306 113 323 C111.0625 321.375 111.0625 321.375 110 319 C109.72478753 311.98208204 113.7502873 308.07373107 118 303 C119.55477929 301.02039369 120.76484089 299.21299341 122 297 C121.64797118 294.86625785 121.64797118 294.86625785 121 293 C120.79246094 293.556875 120.58492187 294.11375 120.37109375 294.6875 C116.27370661 304.83667652 108.66793799 313.19972142 98.77734375 318.1015625 C92.31947161 320.53892518 85.48520764 321.28028036 78.9375 318.875 C77 317 77 317 76 314.125 C76 310.24061364 76.60918553 309.06005791 79 306 C80.96443993 304.762283 82.993535 303.72732631 85.05688477 302.66333008 C91.19311693 299.41846207 95.85321673 296.61373899 98.23046875 289.8359375 C99.55403607 284.95760942 100.4282572 280.02027066 101 275 C100.23300781 274.70351562 99.46601562 274.40703125 98.67578125 274.1015625 C95.92542825 272.96930039 93.51460611 271.58060955 91 270 C90.76667969 270.78632812 90.53335937 271.57265625 90.29296875 272.3828125 C88.62240807 277.0563448 86.50900823 281.42913523 84.3125 285.875 C83.90322266 286.73480469 83.49394531 287.59460937 83.07226562 288.48046875 C80.22075899 294.25356514 76.99800699 299.81476728 72 304 C68.78483258 305.02424503 67.43848325 304.7450047 64 304 C61.04548675 301.32247237 60.72346415 298.32705213 60.4375 294.5 C60.85014755 279.95908622 67.40752 265.22521328 73 252 C74.397634 248.94704061 74.397634 248.94704061 72.59375 245.9453125 C71.89955604 244.66984181 71.201318 243.39656746 70.5 242.125 C54.13073414 210.71927037 48.40066754 168.53491916 57 134 C57.98401454 130.99328891 59.03167267 128.1106992 60.328125 125.2265625 C61.74488701 120.5314791 59.42371081 116.46341962 57.33984375 112.28125 C56.79755127 111.19030029 56.25525879 110.09935059 55.6965332 108.9753418 C55.11605225 107.828479 54.53557129 106.68161621 53.9375 105.5 C53.04840942 103.73813354 53.04840942 103.73813354 52.14135742 101.94067383 C45.15677866 88.22399392 37.37588106 73.67639323 26 63 C25.1028125 63.4640625 25.1028125 63.4640625 24.1875 63.9375 C22 65 22 65 19 66 C18.39414063 64.83726563 17.78828125 63.67453125 17.1640625 62.4765625 C1.89201762 32.90164582 1.89201762 32.90164582 -17.50390625 5.953125 C-19 4 -19 4 -20 1 C-6.41495908 -1.73964992 -6.41495908 -1.73964992 0 0 Z M142 278 C142.33 283.61 142.66 289.22 143 295 C145.541288 289.917424 146.30339357 286.66334665 146 281 C145.34 280.01 144.68 279.02 144 278 C143.34 278 142.68 278 142 278 Z M142 296 C143 299 143 299 143 299 Z " fill="#FEFEFE" transform="translate(1111,1015)"/>
<path d="M0 0 C0.46148438 0.36351562 0.92296875 0.72703125 1.3984375 1.1015625 C21.04595663 16.24490729 43.7900627 23.81828356 68 28 C68 28.66 68 29.32 68 30 C64.04 31.98 60.08 33.96 56 36 C56.10828125 37.89492187 56.10828125 37.89492187 56.21875 39.828125 C56.80379285 50.77975314 57.12902256 61.72005668 57.1875 72.6875 C57.20683594 74.4214502 57.20683594 74.4214502 57.2265625 76.19042969 C57.2348207 83.34409425 56.55293046 90.01489239 55 97 C55.64348389 97.27690674 56.28696777 97.55381348 56.94995117 97.83911133 C59 99 59 99 59.80078125 101.57421875 C60.05408203 103.11529297 60.05408203 103.11529297 60.3125 104.6875 C61.51299774 110.2111016 63.03765694 112.53647324 67.22265625 116.1640625 C75.43987092 124.65217436 76.31142371 138.38792799 77.21875 149.50390625 C77.32215698 150.69999008 77.42556396 151.89607391 77.53210449 153.12840271 C77.86084489 156.93927522 78.1810512 160.7507965 78.5 164.5625 C78.92264204 169.56419035 79.34960318 174.56548497 79.78125 179.56640625 C79.88381104 180.75956451 79.98637207 181.95272278 80.09204102 183.18203735 C80.73908222 190.53633084 81.53404425 197.83495031 82.65039062 205.13256836 C83.6065832 212.97508356 83.6065832 212.97508356 81.1875 217.0625 C67.68783534 231.46464921 35.58660294 232.42480606 17.02954102 233.10961914 C-40.97694442 234.24737458 -40.97694442 234.24737458 -54.9375 221.1875 C-57.92624086 215.03421 -57.15086728 210.63385415 -55.0625 204.3125 C-51.93803781 196.19588035 -47.77739383 188.28635861 -41.99780273 181.72802734 C-39.73864183 178.6431118 -38.97572916 176.21451876 -38.0703125 172.51171875 C-37.75304199 171.25528564 -37.43577148 169.99885254 -37.10888672 168.7043457 C-36.9483783 168.04761871 -36.78786987 167.39089172 -36.62249756 166.71426392 C-35.78657049 163.30876615 -34.90261524 159.91593836 -34.015625 156.5234375 C-33.84284027 155.86154922 -33.67005554 155.19966095 -33.49203491 154.51771545 C-29.04684133 137.68570874 -22.38684725 119.84048872 -7.625 109.375 C-5 108 -5 108 -2 108 C-2.0825 106.96875 -2.165 105.9375 -2.25 104.875 C-1.95973559 100.3759016 -0.80320422 98.46278168 2 95 C2.66 94.67 3.32 94.34 4 94 C3.93071289 93.37448242 3.86142578 92.74896484 3.79003906 92.10449219 C2.87566255 82.74921648 2.77964816 73.4204818 2.75976562 64.02929688 C2.75006755 61.26922365 2.71895184 58.50989937 2.6875 55.75 C2.63137684 45.88602264 3.2284509 36.76945516 5.45019531 27.14355469 C6.36365839 21.92075245 4.83762064 19.57012392 1.9375 15.3125 C-1.23274614 10.2006677 -1.65962004 6.93658038 -1 1 C-0.67 0.67 -0.34 0.34 0 0 Z " fill="#FEFEFE" transform="translate(894,1294)"/>
<path d="M0 0 C-0.43928059 5.49100742 -1.75974452 8.5814698 -5 13 C-6.81745547 15.66755561 -7.04274111 16.70277281 -6.57421875 19.9609375 C-6.13529297 21.65089844 -6.13529297 21.65089844 -5.6875 23.375 C-2.13436493 38.59373781 -2.54365406 54.34958364 -3.4375 69.875 C-3.47810547 70.58849609 -3.51871094 71.30199219 -3.56054688 72.03710938 C-3.80886936 76.00656284 -4.26934617 79.88440233 -4.875 83.8125 C-5.200088 86.05737212 -5.200088 86.05737212 -5 88 C-2.71463073 90.19504488 -2.71463073 90.19504488 0 92 C1.13759181 94.69973941 1.5271756 97.0684887 2 100 C1.67 100.66 1.34 101.32 1 102 C2.08667969 102.12568359 2.08667969 102.12568359 3.1953125 102.25390625 C10.9572643 104.31871515 17.18150237 112.75354813 21.41796875 119.2421875 C28.87372045 132.2391275 32.83688707 147.10401415 36.0546875 161.65625 C37.98699053 170.82292413 37.98699053 170.82292413 43.35546875 178.25 C50.35552744 185.69899357 55.96715018 197.53365506 56.5 207.8125 C56.25065592 212.17602139 55.02221515 214.75111871 52 218 C42.80062685 224.50148007 30.26342556 225.48754709 19.375 226.1875 C18.20912354 226.26572998 17.04324707 226.34395996 15.84204102 226.42456055 C-56.44160382 230.88603341 -56.44160382 230.88603341 -78.8046875 213.60546875 C-80.1875 212.25 -80.1875 212.25 -82 210 C-82.33 209.67 -82.66 209.34 -83 209 C-83.43418594 199.38036924 -82.19500085 189.86440886 -81.1875 180.3125 C-80.81463533 176.73195338 -80.44418794 173.15115934 -80.07421875 169.5703125 C-79.98143646 168.67714828 -79.88865417 167.78398407 -79.7930603 166.86375427 C-79.20988893 161.20219396 -78.68492735 155.53853132 -78.20703125 149.8671875 C-78.0852985 148.46441459 -77.96331643 147.0616633 -77.84106445 145.65893555 C-77.62076176 143.09367864 -77.41147776 140.52744072 -77.21557617 137.96020508 C-76.23081252 126.78271013 -73.293241 116.7518892 -66 108 C-65.30003906 107.52433594 -64.60007812 107.04867188 -63.87890625 106.55859375 C-61.42375509 104.52199227 -61.34522519 103.1790201 -60.9375 100.0625 C-60.31004676 95.3883259 -60.31004676 95.3883259 -58.421875 93.0234375 C-56.49316398 90.27873336 -56.87950486 88.85588725 -57.3125 85.5625 C-59.08779202 67.86875618 -59.71422044 47.25093853 -55 30 C-56.01320313 29.76216797 -56.01320313 29.76216797 -57.046875 29.51953125 C-57.93890625 29.28621094 -58.8309375 29.05289062 -59.75 28.8125 C-60.63171875 28.59207031 -61.5134375 28.37164063 -62.421875 28.14453125 C-65.63818613 26.71668403 -67.00490209 24.84814211 -69 22 C-68.37246826 21.91024902 -67.74493652 21.82049805 -67.09838867 21.72802734 C-47.08381743 18.80031067 -17.75863412 0 0 0 Z " fill="#FEFEFE" transform="translate(1110,1301)"/>
<path d="M0 0 C3.87691107 1.57415182 6.19665677 4.06159494 9.0625 7.0625 C14.37005988 12.50288259 20.01372543 17.31047973 26 22 C27.00804687 22.81339844 28.01609375 23.62679687 29.0546875 24.46484375 C55.24816988 45.40829574 87.80560929 56.86123027 119.5 66.75 C120.68190918 67.12862183 120.68190918 67.12862183 121.88769531 67.51489258 C127.04608635 69.05110664 131.10736127 69.44631937 136 67 C144.90403386 66.40639774 155.13242896 67.53199669 163 72 C162.40328295 75.10947849 161.46927631 76.9916466 159.48046875 79.44140625 C158.95904297 80.0969751 158.43761719 80.75254395 157.90039062 81.42797852 C157.05250977 82.48456665 157.05250977 82.48456665 156.1875 83.5625 C145.25436179 97.56794648 136.41125609 112.51575007 128.36328125 128.34399414 C127.85152344 129.3261792 127.33976563 130.30836426 126.8125 131.3203125 C126.36519531 132.19961426 125.91789063 133.07891602 125.45703125 133.98486328 C124 136 124 136 122.0390625 136.89404297 C117.42439373 137.13383778 113.4980305 133.4114165 110.125 130.625 C107.72562375 127.66106463 107.26229425 125.75955091 107 122 C105.70320312 121.88785156 104.40640625 121.77570313 103.0703125 121.66015625 C98.13855736 121.10694532 93.60131418 119.91646298 88.875 118.4375 C88.02244629 118.17501465 87.16989258 117.9125293 86.29150391 117.64208984 C32.79640444 100.95936471 -14.88872047 74.42319756 -47 27 C-47 26.67 -47 26.34 -47 26 C-45.71867188 26.020625 -44.43734375 26.04125 -43.1171875 26.0625 C-28.94421404 26.00480252 -19.70337917 23.37645174 -9 13.625 C-5.29924864 9.56641517 -2.63320044 4.79377517 0 0 Z " fill="#36352F" transform="translate(758,946)"/>
<path d="M0 0 C11.90829326 8.17778826 19.42650638 19.872622 22.72827148 33.99487305 C24.96007345 47.84649054 24.35126892 63.29046077 19.10546875 76.3359375 C18.75484375 77.35171875 18.40421875 78.3675 18.04296875 79.4140625 C12.82493049 93.54624946 3.14564929 104.78549012 -10.40234375 111.29296875 C-19.35654528 115.04025999 -28.8925917 116.16978244 -38.20703125 112.7734375 C-50.33244963 107.08840528 -58.12204285 97.72636079 -62.828125 85.34765625 C-63.18003906 84.35378906 -63.53195312 83.35992188 -63.89453125 82.3359375 C-64.21550781 81.49675781 -64.53648437 80.65757812 -64.8671875 79.79296875 C-70.27020915 63.58390379 -67.43385044 42.59303131 -60.4609375 27.2734375 C-53.33913585 13.9178394 -44.11138942 3.25134352 -29.89453125 -2.6640625 C-28.90453125 -3.0971875 -27.91453125 -3.5303125 -26.89453125 -3.9765625 C-17.6811113 -6.08797124 -8.19307012 -4.71018606 0 0 Z " fill="#7DCEEB" transform="translate(983.89453125,675.6640625)"/>
<path d="M0 0 C11.14361789 6.39325278 18.2710738 15.64062486 22.1875 28 C22.60906781 29.63943038 23.00502967 31.28566062 23.375 32.9375 C23.68050781 34.19433594 23.68050781 34.19433594 23.9921875 35.4765625 C28.2215111 55.11684607 24.38702579 75.737965 13.64453125 92.6640625 C11.98482949 94.87446622 10.25469563 96.91196591 8.375 98.9375 C7.4159375 99.99710938 7.4159375 99.99710938 6.4375 101.078125 C-2.30310449 110.2967313 -11.63425276 115.15469666 -24.4375 115.5 C-34.91654769 115.48778096 -43.34764334 111.00819682 -50.88671875 103.828125 C-62.00172726 91.73899215 -64.79972057 76.69646043 -64.875 60.8125 C-64.895625 59.74773438 -64.91625 58.68296875 -64.9375 57.5859375 C-65.02725691 39.09601423 -57.96280672 22.45032301 -45.25 9.0625 C-33.03687575 -2.56000684 -15.66676092 -7.97767113 0 0 Z " fill="#7DCEEC" transform="translate(1195.625,709.0625)"/>
<path d="M0 0 C1.78074165 -0.00786278 1.78074165 -0.00786278 3.59745789 -0.0158844 C6.10296855 -0.02229225 8.60850934 -0.0209837 11.11401367 -0.01245117 C14.92617045 -0.0039576 18.73681977 -0.03269665 22.54882812 -0.06445312 C24.99088497 -0.06606584 27.43294445 -0.06548627 29.875 -0.0625 C31.00448563 -0.07373398 32.13397125 -0.08496796 33.29768372 -0.09654236 C41.41640447 -0.02587816 48.65278258 1.21119988 55.109375 6.43359375 C55.63402344 7.09359375 56.15867187 7.75359375 56.69921875 8.43359375 C57.52099609 9.42359375 57.52099609 9.42359375 58.359375 10.43359375 C59.66317323 12.47501484 60.11236904 14.09367176 60.63671875 16.43359375 C62.2890625 16.25 63.94140625 16.06640625 65.59375 15.8828125 C66.67180908 15.76325195 67.74986816 15.64369141 68.8605957 15.52050781 C71.29552736 15.2494997 73.73025485 14.97665207 76.16479492 14.70214844 C82.14172044 14.03060955 88.11744471 13.37735543 94.10546875 12.8125 C109.51584701 11.31192185 124.59695402 8.77223855 139.79418945 5.85839844 C140.58572418 5.70688324 141.37725891 5.55536804 142.19277954 5.39926147 C143.67110972 5.11494382 145.14892261 4.82791583 146.62606812 4.5375061 C151.28211333 3.63618123 155.9253508 2.97988706 160.63671875 2.43359375 C161.7549569 4.67007006 161.83067936 6.08250904 161.953125 8.56640625 C161.99501953 9.37207031 162.03691406 10.17773438 162.08007812 11.0078125 C162.11939453 11.84957031 162.15871094 12.69132812 162.19921875 13.55859375 C162.24240234 14.40808594 162.28558594 15.25757813 162.33007812 16.1328125 C162.43626111 18.23287598 162.53700372 20.33321323 162.63671875 22.43359375 C161.97671875 22.10359375 161.31671875 21.77359375 160.63671875 21.43359375 C158.00857077 21.86803455 155.44294325 22.37461936 152.84375 22.9453125 C151.18220576 23.29403102 149.52040965 23.64155105 147.85839844 23.98803711 C146.97680054 24.17332977 146.09520264 24.35862244 145.18688965 24.54953003 C125.57624028 28.64378976 106.0625058 31.28454099 86.10215759 32.91473389 C82.54562723 33.21304363 79.12919836 33.71454268 75.63671875 34.43359375 C73.2000511 34.50060881 70.76170133 34.51887396 68.32421875 34.49609375 C67.06996094 34.48707031 65.81570313 34.47804688 64.5234375 34.46875 C63.57082031 34.45714844 62.61820313 34.44554687 61.63671875 34.43359375 C61.37117188 35.33851562 61.105625 36.2434375 60.83203125 37.17578125 C59.69536385 40.27375711 58.65312278 42.09846912 56.51171875 44.55859375 C55.97289062 45.20054688 55.4340625 45.8425 54.87890625 46.50390625 C47.56151415 52.80145276 40.74380198 53.02743878 31.44921875 52.96484375 C29.56360229 52.97058411 29.56360229 52.97058411 27.63989258 52.97644043 C24.99015386 52.97915448 22.34190681 52.97386787 19.69238281 52.95507812 C16.31650066 52.93228873 12.94189091 52.94542743 9.5660553 52.96936798 C6.31873252 52.98739503 3.07155821 52.97472958 -0.17578125 52.96484375 C-1.37807373 52.97294067 -2.58036621 52.9810376 -3.8190918 52.98937988 C-11.84593591 52.90019273 -17.43724778 51.93556089 -23.60546875 46.43359375 C-24.14429688 45.77359375 -24.683125 45.11359375 -25.23828125 44.43359375 C-25.79257812 43.77359375 -26.346875 43.11359375 -26.91796875 42.43359375 C-28.31685565 40.49783674 -29.32346299 38.57685845 -30.36328125 36.43359375 C-31.17362823 36.39236389 -31.98397522 36.35113403 -32.81887817 36.30865479 C-40.60977642 35.91004278 -48.39991018 35.49929538 -56.18951607 35.07623672 C-60.19033889 34.85934299 -64.191275 34.64650426 -68.19287109 34.44433594 C-89.10236163 33.38434866 -109.65363827 31.56356297 -130.36328125 28.43359375 C-130.36328125 22.16359375 -130.36328125 15.89359375 -130.36328125 9.43359375 C-128.74164062 9.62695312 -127.12 9.8203125 -125.44921875 10.01953125 C-118.42343863 10.85002573 -111.39456493 11.65111232 -104.36328125 12.43359375 C-103.00396484 12.58513916 -103.00396484 12.58513916 -101.6171875 12.73974609 C-88.35548108 14.17747848 -75.05620314 14.88352296 -61.73828125 15.55859375 C-60.43500885 15.62543869 -60.43500885 15.62543869 -59.10540771 15.69363403 C-54.23393269 15.94042581 -49.36242029 16.16390003 -44.48822021 16.34963989 C-42.52047383 16.42738325 -40.55339096 16.52145591 -38.58642578 16.61694336 C-37.51247559 16.65053955 -36.43852539 16.68413574 -35.33203125 16.71875 C-34.42646484 16.75363525 -33.52089844 16.78852051 -32.58789062 16.82446289 C-30.23092465 16.63357748 -30.23092465 16.63357748 -28.68164062 14.71020508 C-27.4419054 12.74193896 -27.4419054 12.74193896 -26.42578125 10.53515625 C-24.02449825 5.78555972 -19.4037893 3.04751301 -14.57461548 1.05343628 C-9.83285102 -0.27569219 -4.88853931 -0.01263782 0 0 Z " fill="#3A3932" transform="translate(990.36328125,1155.56640625)"/>
<path d="M0 0 C1.515625 1.33984375 1.515625 1.33984375 3.0625 2.9375 C6.96682063 6.69887068 11.01341251 6.80035268 16.24829102 7.32543945 C38.37943143 9.61880778 58.4798445 26.15463387 74 41 C74.6703125 41.61875 75.340625 42.2375 76.03125 42.875 C91.44724635 57.55690128 106.45621924 80.73731546 110 102 C109.56640625 104.2734375 109.56640625 104.2734375 109 106 C107.80375 105.505 106.6075 105.01 105.375 104.5 C96.43930395 101.55895988 86.72728838 101.73935437 78.17578125 105.7421875 C71.58220258 109.55391521 67.29617303 114.79966237 63 121 C60.16035019 118.51865073 58.77429774 115.8547638 57.14453125 112.4765625 C56.60868408 111.37916748 56.07283691 110.28177246 55.52075195 109.15112305 C54.95702881 107.98750244 54.39330566 106.82388184 53.8125 105.625 C46.40384791 90.60215557 38.4093008 74.64626936 26 63 C25.1028125 63.4640625 25.1028125 63.4640625 24.1875 63.9375 C22 65 22 65 19 66 C18.39414063 64.83726563 17.78828125 63.67453125 17.1640625 62.4765625 C1.89201762 32.90164582 1.89201762 32.90164582 -17.50390625 5.953125 C-19 4 -19 4 -20 1 C-6.41495908 -1.73964992 -6.41495908 -1.73964992 0 0 Z " fill="#36352F" transform="translate(1111,1015)"/>
<path d="M0 0 C0.46148438 0.36351562 0.92296875 0.72703125 1.3984375 1.1015625 C21.04595663 16.24490729 43.7900627 23.81828356 68 28 C68 28.66 68 29.32 68 30 C64.04 31.98 60.08 33.96 56 36 C56.10828125 37.89492187 56.10828125 37.89492187 56.21875 39.828125 C56.80379285 50.77975314 57.12902256 61.72005668 57.1875 72.6875 C57.20039062 73.8434668 57.21328125 74.99943359 57.2265625 76.19042969 C57.2348207 83.34409425 56.55293046 90.01489239 55 97 C55.63421875 97.27328125 56.2684375 97.5465625 56.921875 97.828125 C59 99 59 99 60.25 101.75 C60.99129181 104.9622645 61.15632757 107.71712109 61 111 C60.35675781 110.81824219 59.71351563 110.63648438 59.05078125 110.44921875 C57.10777671 109.90872533 55.16067599 109.38286141 53.2109375 108.8671875 C51.2252058 108.330895 49.24814668 107.75949361 47.2890625 107.1328125 C39.44633359 104.876685 31.87595618 104.71187163 23.75 104.6875 C22.63681396 104.68210205 21.52362793 104.6767041 20.37670898 104.67114258 C14.6719126 104.72016384 9.42821847 105.07680204 3.91113281 106.57348633 C2 107 2 107 -2 107 C-2.50341475 101.7141451 -1.26910671 99.13445849 2 95 C2.99 94.505 2.99 94.505 4 94 C3.93071289 93.37448242 3.86142578 92.74896484 3.79003906 92.10449219 C2.87566255 82.74921648 2.77964816 73.4204818 2.75976562 64.02929688 C2.75006755 61.26922365 2.71895184 58.50989937 2.6875 55.75 C2.63137684 45.88602264 3.2284509 36.76945516 5.45019531 27.14355469 C6.36365839 21.92075245 4.83762064 19.57012392 1.9375 15.3125 C-1.23274614 10.2006677 -1.65962004 6.93658038 -1 1 C-0.67 0.67 -0.34 0.34 0 0 Z " fill="#36352F" transform="translate(894,1294)"/>
<path d="M0 0 C-0.43928059 5.49100742 -1.75974452 8.5814698 -5 13 C-6.81745547 15.66755561 -7.04274111 16.70277281 -6.57421875 19.9609375 C-6.13529297 21.65089844 -6.13529297 21.65089844 -5.6875 23.375 C-2.13436493 38.59373781 -2.54365406 54.34958364 -3.4375 69.875 C-3.47810547 70.58849609 -3.51871094 71.30199219 -3.56054688 72.03710938 C-3.80886936 76.00656284 -4.26934617 79.88440233 -4.875 83.8125 C-5.200088 86.05737212 -5.200088 86.05737212 -5 88 C-2.71463073 90.19504488 -2.71463073 90.19504488 0 92 C1.13759181 94.69973941 1.5271756 97.0684887 2 100 C1.67 100.66 1.34 101.32 1 102 C0.36320312 101.7834375 -0.27359375 101.566875 -0.9296875 101.34375 C-20.88752854 95.6263844 -41.6606214 98.55354047 -61 105 C-61.50623202 97.65963567 -61.50623202 97.65963567 -58.9375 94.3125 C-56.32784551 89.85083264 -57.07624469 87.01921069 -57.62890625 81.98828125 C-59.33849126 65.59047686 -59.35807605 45.94768487 -55 30 C-56.01320313 29.76216797 -56.01320313 29.76216797 -57.046875 29.51953125 C-57.93890625 29.28621094 -58.8309375 29.05289062 -59.75 28.8125 C-60.63171875 28.59207031 -61.5134375 28.37164063 -62.421875 28.14453125 C-65.63818613 26.71668403 -67.00490209 24.84814211 -69 22 C-68.37246826 21.91024902 -67.74493652 21.82049805 -67.09838867 21.72802734 C-47.08381743 18.80031067 -17.75863412 0 0 0 Z " fill="#36352F" transform="translate(1110,1301)"/>
<path d="M0 0 C0.62648438 0.350625 1.25296875 0.70125 1.8984375 1.0625 C7.92213021 4.85032423 11.30288639 10.52863125 14.375 16.8125 C16.10952447 25.6585748 15.58997206 33.18952295 11 41 C10.63777344 41.63808594 10.27554687 42.27617188 9.90234375 42.93359375 C5.69834413 49.56023722 -0.55920781 52.92857067 -8 55 C-17.25580598 55.97700174 -25.38078749 55.72133594 -33 50 C-35.70666351 47.54937223 -37.88871614 44.97371811 -40 42 C-40.43441406 41.42894531 -40.86882813 40.85789062 -41.31640625 40.26953125 C-45.48963181 33.68252367 -44.83318379 25.45401922 -44 18 C-41.5934022 9.18352151 -35.35509811 3.42803749 -27.83984375 -1.3828125 C-18.62911501 -6.16369892 -8.76261015 -5.14253568 0 0 Z " fill="#3A3933" transform="translate(1021,1057)"/>
<path d="M0 0 C6.0323021 7.72202258 7.12160271 15.39824226 6 25 C4.00992544 34.04370678 0.64592727 43.35407273 -6 50 C-10.02104757 50.44678306 -12.13756416 50.6808704 -15.375 48.125 C-17 46 -17 46 -18 44 C-18.25652344 44.64066406 -18.51304688 45.28132813 -18.77734375 45.94140625 C-22.49404029 54.33838731 -27.71990899 59.38261917 -36.1875 63 C-40.09233747 64.02421967 -42.20251789 64.32470306 -46 63 C-47.9375 61.375 -47.9375 61.375 -49 59 C-49.27521247 51.98208204 -45.2497127 48.07373107 -41 43 C-39.44522071 41.02039369 -38.23515911 39.21299341 -37 37 C-37.35202882 34.86625785 -37.35202882 34.86625785 -38 33 C-38.20753906 33.556875 -38.41507813 34.11375 -38.62890625 34.6875 C-42.72629339 44.83667652 -50.33206201 53.19972142 -60.22265625 58.1015625 C-66.68052839 60.53892518 -73.51479236 61.28028036 -80.0625 58.875 C-82 57 -82 57 -83 54.125 C-83 50.23997552 -82.38904896 49.06241025 -80 46 C-78.0364403 44.74486824 -76.00815076 43.69194247 -73.94311523 42.61254883 C-67.95840117 39.41754982 -63.19308119 36.6500003 -60.76953125 30.05859375 C-59.44785597 25.42624722 -58.62805606 20.77223702 -58 16 C-54.50422779 16.50358677 -51.91072984 17.04210857 -48.6875 18.5625 C-39.22563276 22.28161545 -26.57984817 20.43297731 -17 18 C-16.01 24.435 -16.01 24.435 -15 31 C-13.41576679 26.24730038 -13.67504836 21.78454757 -15 17 C-14.12988281 16.41605469 -14.12988281 16.41605469 -13.2421875 15.8203125 C-7.03714028 11.3764338 -3.47165707 6.7663277 0 0 Z M-17 36 C-16 39 -16 39 -16 39 Z " fill="#36352F" transform="translate(1270,1275)"/>
<path d="M0 0 C0.66 0 1.32 0 2 0 C2.04125 1.051875 2.0825 2.10375 2.125 3.1875 C3.00109189 7.00475751 3.73124555 8.52671217 6.88671875 10.80859375 C21.72784631 19.17558803 37.91814658 19.41106286 54.5 19.375 C55.39685516 19.37478851 56.29371033 19.37457703 57.21774292 19.37435913 C81.57941898 19.31729082 107.19493059 17.93107572 129 6 C130.6601455 5.31725618 132.32577231 4.6474441 134 4 C135.72945205 15.54109589 135.72945205 15.54109589 133.25 20.5 C112.6786237 39.27278602 68.07159566 36.95497682 42.47900391 35.84765625 C7.47506968 33.92829099 7.47506968 33.92829099 -2.9375 24.1875 C-5.75057996 18.39586479 -5.33983247 14.41585695 -3.27539062 8.43896484 C-2.23356182 5.60533321 -1.13542359 2.79730655 0 0 Z " fill="#3C3B35" transform="translate(842,1491)"/>
<path d="M0 0 C6.92245561 0.69224556 13.18732078 1.6059584 19.875 3.1875 C29.96878613 5.46812551 40.10691352 7.30965934 50.3125 9 C51.06794098 9.12535126 51.82338196 9.25070251 52.60171509 9.37985229 C61.31025544 10.81746691 70.02863222 12.16867031 78.765625 13.421875 C79.55225021 13.53511108 80.33887543 13.64834717 81.14933777 13.76501465 C84.92321368 14.30650718 88.69810592 14.83759652 92.47583008 15.3515625 C93.82895893 15.54152334 95.18206874 15.73161991 96.53515625 15.921875 C97.714729 16.08268555 98.89430176 16.24349609 100.10961914 16.40917969 C103 17 103 17 106 19 C105.97265625 21.30859375 105.97265625 21.30859375 105 24 C102.40726142 25.32282581 100.18627953 26.21398193 97.4375 27.0625 C96.67824219 27.31217529 95.91898438 27.56185059 95.13671875 27.8190918 C62.78854911 38.22580324 30.98279809 37.87174308 0 23 C0 15.41 0 7.82 0 0 Z " fill="#383731" transform="translate(953,990)"/>
<path d="M0 0 C3.46025938 1.73012969 3.95452919 5.50589101 5.1640625 9.01171875 C6.74623346 14.66761028 6.93863409 18.92718305 4.5 24.3125 C-4.07032368 33.52559796 -18.7746486 34.42571052 -30.625 35.1875 C-32.3738147 35.30484497 -32.3738147 35.30484497 -34.15795898 35.42456055 C-106.44160382 39.88603341 -106.44160382 39.88603341 -128.8046875 22.60546875 C-130.1875 21.25 -130.1875 21.25 -132 19 C-132.33 18.67 -132.66 18.34 -133 18 C-133.09919077 16.39836084 -133.12969898 14.79220082 -133.125 13.1875 C-133.12757812 12.31480469 -133.13015625 11.44210937 -133.1328125 10.54296875 C-133.01114834 8.21345785 -132.65514709 6.23061985 -132 4 C-129.77945938 5.10763309 -127.56630441 6.22487919 -125.36328125 7.3671875 C-96.64300269 21.56184502 -48.45288853 25.42463154 -17.39453125 16.20703125 C-7.85325642 12.97496132 -7.85325642 12.97496132 -1 6 C-0.27954633 2.84881675 -0.27954633 2.84881675 0 0 Z " fill="#3B3A35" transform="translate(1160,1492)"/>
<path d="M0 0 C18.31998321 9.65962751 27.44347251 37.67305114 34 56 C31.40512232 58.59487768 29.37378737 58.76385255 25.8125 59.625 C19.27377187 61.39477972 13.74700908 63.98502446 7.88793945 67.35791016 C3.26771757 70 3.26771757 70 0 70 C-14.28108209 29.28094213 -14.28108209 29.28094213 -14.5625 11.375 C-14.57740479 10.68196777 -14.59230957 9.98893555 -14.60766602 9.27490234 C-14.53649742 5.93039926 -14.19562132 4.24562677 -12.08984375 1.6015625 C-8.03750323 -1.50396949 -4.82196419 -1.22308946 0 0 Z " fill="#36352F" transform="translate(630,710)"/>
<path d="M0 0 C1.11823815 2.23647631 1.19396061 3.64891529 1.31640625 6.1328125 C1.35830078 6.93847656 1.40019531 7.74414062 1.44335938 8.57421875 C1.48267578 9.41597656 1.52199219 10.25773437 1.5625 11.125 C1.60568359 11.97449219 1.64886719 12.82398438 1.69335938 13.69921875 C1.79954236 15.79928223 1.90028497 17.89961948 2 20 C1.34 19.67 0.68 19.34 0 19 C-2.62814798 19.4344408 -5.1937755 19.94102561 -7.79296875 20.51171875 C-9.45451299 20.86043727 -11.1163091 21.2079573 -12.77832031 21.55444336 C-13.65991821 21.73973602 -14.54151611 21.92502869 -15.4498291 22.11593628 C-35.06047847 26.21019601 -54.57421295 28.85094724 -74.53456116 30.48114014 C-78.09080236 30.77942563 -81.50838073 31.27672783 -85 32 C-89.33792991 32.12713745 -93.65892792 32.04384921 -98 32 C-98.33 26.06 -98.66 20.12 -99 14 C-96.37733652 13.69513969 -93.75464474 13.39052157 -91.13183594 13.08691406 C-88.79246794 12.81563493 -86.45328066 12.54279377 -84.11425781 12.26855469 C-78.27927489 11.58891619 -72.44590867 10.93392974 -66.59765625 10.37890625 C-52.75174795 9.02952142 -39.17071337 6.91670055 -25.5 4.375 C-24.64942017 4.21688843 -23.79884033 4.05877686 -22.92248535 3.89587402 C-20.49954682 3.44279849 -18.07762409 2.98479564 -15.65625 2.5234375 C-14.5612619 2.31577255 -14.5612619 2.31577255 -13.44415283 2.10391235 C-2.25481668 -0.06094099 -2.25481668 -0.06094099 0 0 Z " fill="#FEAE4C" transform="translate(1151,1158)"/>
<path d="M0 0 C1.62164063 0.19335938 3.24328125 0.38671875 4.9140625 0.5859375 C11.93984262 1.41643198 18.96871632 2.21751857 26 3 C27.35931641 3.15154541 27.35931641 3.15154541 28.74609375 3.30615234 C43.73810421 4.93147101 58.78221611 5.61272738 73.84033203 6.30297852 C82.58078137 6.70631018 91.28455139 7.19670009 100 8 C100 13.94 100 19.88 100 26 C86.11440792 26.18576043 72.30083714 25.49813201 58.4375 24.75 C57.22109833 24.68541595 56.00469666 24.62083191 54.75143433 24.55429077 C36.33236672 23.55921937 18.20443504 22.02639131 0 19 C0 12.73 0 6.46 0 0 Z " fill="#FEAE4B" transform="translate(860,1165)"/>
<path d="M0 0 C17.10467352 10.4115404 26.18876102 42.01094282 32 60 C32 60.66 32 61.32 32 62 C21.44 62.99 10.88 63.98 0 65 C-17.20951019 19.10797283 -17.20951019 19.10797283 -10 2 C-6.9623819 -1.68853627 -4.3841337 -1.40292278 0 0 Z " fill="#36352F" transform="translate(666,701)"/>
<path d="M0 0 C1.59240509 -0.02409439 1.59240509 -0.02409439 3.21697998 -0.04867554 C8.07921761 -0.09309254 12.94131787 -0.1341968 17.80371094 -0.15722656 C20.3682564 -0.17378249 22.93275579 -0.20106728 25.49707031 -0.23925781 C29.19262663 -0.29402443 32.8871003 -0.31590235 36.58300781 -0.33056641 C37.72695007 -0.35323578 38.87089233 -0.37590515 40.04949951 -0.39926147 C48.93216579 -0.3756945 48.93216579 -0.3756945 52.61914062 2.60058594 C56.40961114 6.88767753 56.18814627 9.92220895 56.12988281 15.49365234 C55.78175521 19.78929833 54.26274145 21.97549323 51.13499451 24.7926178 C48.41214511 26.50705843 46.78085066 26.57843037 43.5793457 26.59692383 C41.98232567 26.61595009 41.98232567 26.61595009 40.3530426 26.63536072 C39.20818893 26.63242508 38.06333527 26.62948944 36.88378906 26.62646484 C35.70272079 26.6317067 34.52165253 26.63694855 33.30479431 26.64234924 C30.80745225 26.6487718 28.31007995 26.64742948 25.81274414 26.63891602 C21.99147653 26.63041081 18.17170566 26.65915942 14.35058594 26.69091797 C11.92415409 26.69253016 9.4977196 26.6919521 7.07128906 26.68896484 C5.92845963 26.70019882 4.78563019 26.7114328 3.60816956 26.7230072 C-4.31788342 26.65337649 -4.31788342 26.65337649 -8.2668457 24.29467773 C-12.15340605 19.81130671 -12.57841493 15.42555147 -12.48339844 9.63818359 C-11.83601495 5.62568794 -10.03106947 3.92491607 -7.08886719 1.19287109 C-4.57741697 -0.06285401 -2.81100501 0.03859095 0 0 Z " fill="#FEAF4E" transform="translate(984.0888671875,1168.80712890625)"/>
<path d="M0 0 C9.62395501 4.91436001 14.61073487 14.32255599 19.25 23.625 C20.0234375 25.1409375 20.0234375 25.1409375 20.8125 26.6875 C21.79567869 28.61838187 22.77079703 30.55339737 23.73632812 32.49316406 C24.75134315 34.5067217 25.82716629 36.48957181 26.921875 38.4609375 C28 41 28 41 27.9140625 43.17578125 C26.75526626 45.48842162 25.41091357 46.5957143 23.375 48.1875 C16.75518099 53.72774279 12.03321423 60.41755726 8 68 C7.34 68 6.68 68 6 68 C-0.16491955 55.57686389 -5.82247693 43.23823189 -10 30 C-10.37382813 28.84242188 -10.74765625 27.68484375 -11.1328125 26.4921875 C-12.89346627 19.40198717 -13.79647786 10.22818033 -10.125 3.625 C-6.96068458 -0.28386023 -4.93832421 -0.47483887 0 0 Z " fill="#36352F" transform="translate(599,740)"/>
<path d="M0 0 C2.0625 0.4375 2.0625 0.4375 4 1 C3.40367629 16.20966613 1.61947139 31.26879526 -0.1875 46.375 C-0.42084549 48.33903275 -0.42084549 48.33903275 -0.65890503 50.34274292 C-2.96481138 69.69294239 -5.67588441 88.8901759 -9.27050781 108.04150391 C-10.04751292 112.21131001 -10.75715071 116.39152754 -11.4609375 120.57421875 C-13.88077008 134.88162058 -16.54429828 149.09589572 -19.75 163.25 C-19.97319412 164.23812683 -19.97319412 164.23812683 -20.20089722 165.24621582 C-21.56838897 171.26542056 -22.97854337 177.16241704 -25 183 C-26.65 182.67 -28.3 182.34 -30 182 C-29.02233478 174.82072704 -27.50645023 167.91806501 -25.67578125 160.91796875 C-23.1352745 150.966021 -21.16426043 140.95605989 -19.36962891 130.84594727 C-18.87556919 128.06570304 -18.37022432 125.28768654 -17.86328125 122.50976562 C-16.0429267 112.44108878 -14.40260134 102.36538637 -13.0451355 92.22315979 C-12.48511797 88.09951445 -11.82912432 84.03167947 -10.98535156 79.95581055 C-10.02876241 75.30774232 -9.38321659 70.67443075 -8.8515625 65.9609375 C-8.75416779 65.12849014 -8.65677307 64.29604279 -8.556427 63.43836975 C-8.34932333 61.66515895 -8.14398587 59.89174107 -7.94030762 58.11813354 C-7.51249804 54.39624823 -7.0747817 50.67554869 -6.63757324 46.95475769 C-6.41555482 45.06484321 -6.19395686 43.17487929 -5.97277832 41.28486633 C-5.00664284 33.0307575 -4.0237142 24.77886508 -3.00701904 16.53082275 C-2.83609805 15.13873602 -2.66685923 13.74644169 -2.49932861 12.35394287 C-2.2692342 10.44250045 -2.03322947 8.5317722 -1.796875 6.62109375 C-1.66635742 5.5530249 -1.53583984 4.48495605 -1.40136719 3.38452148 C-1 1 -1 1 0 0 Z " fill="#0F0F0F" transform="translate(1330,721)"/>
<path d="M0 0 C3.49202387 1.43789218 5.11902477 3.14595082 7.3125 6.1875 C10.54872632 10.51647806 14.07696989 14.29160376 18 18 C16.269162 23.94287729 13.54726073 29.34626857 10.8125 34.875 C10.35552734 35.83019531 9.89855469 36.78539062 9.42773438 37.76953125 C6.46052887 43.7697887 3.23876358 49.67462421 -2 54 C-5.21563997 55.01937467 -6.56202875 54.74489377 -10 54 C-12.95451325 51.32247237 -13.27653585 48.32705213 -13.5625 44.5 C-13.14250201 29.70007091 -6.57031911 13.14063822 0 0 Z " fill="#36352F" transform="translate(1185,1265)"/>
<path d="M0 0 C1.32 0 2.64 0 4 0 C3.57588164 8.67060605 1.81832858 16.91237805 -0.15200806 25.33093262 C-4.09071685 42.20450745 -7.35202864 59.14246811 -10.32470703 76.21020508 C-10.91799987 79.53980912 -11.54144818 82.86123087 -12.17887878 86.18251038 C-13.52389994 93.20321036 -14.65151273 100.21348981 -15.5 107.3125 C-16.37193436 114.31796205 -17.33724452 121.28711094 -18.5 128.25 C-19.77785038 136.0366377 -20.74478734 143.84643843 -21.625 151.6875 C-21.75463135 152.84209717 -21.8842627 153.99669434 -22.01782227 155.1862793 C-22.84871018 162.87872873 -23.37330707 170.51834521 -23.49609375 178.25390625 C-23.66238281 179.16011719 -23.82867188 180.06632813 -24 181 C-26.03515625 182.40234375 -26.03515625 182.40234375 -28 183 C-29.90441588 181.09558412 -29.23989644 177.7070539 -29.25 175.125 C-29.17734679 126.50443602 -17.64749527 75.28437862 -7 28 C-6.6018955 26.20203722 -6.2047045 24.40387183 -5.80859375 22.60546875 C-4.88133139 18.40160405 -3.94202619 14.20058041 -3 10 C-2.82919922 9.19224121 -2.65839844 8.38448242 -2.48242188 7.55224609 C-2.22041992 6.32562256 -2.22041992 6.32562256 -1.953125 5.07421875 C-1.79489258 4.32100342 -1.63666016 3.56778809 -1.47363281 2.79174805 C-1 1 -1 1 0 0 Z " fill="#0F0F0F" transform="translate(810,644)"/>
<path d="M0 0 C3.77702297 2.63513231 6.60374735 5.7074947 8.6875 9.875 C9.41933976 15.89646639 9.71021834 21.31712168 6.125 26.4375 C2.17446715 30.89807817 -1.90215686 32.61674895 -7.8125 33.25 C-14.78005656 32.50347608 -18.7726321 29.9213127 -23.1484375 24.69140625 C-25.6968961 20.7147846 -25.69727279 16.49227347 -25.3125 11.875 C-23.62393536 6.21777069 -20.76539312 2.57473202 -15.59375 -0.28125 C-10.28184176 -2.24592839 -5.28236982 -1.79401239 0 0 Z " fill="#FCFCFC" transform="translate(1014.3125,1067.125)"/>
<path d="M0 0 C1.82421875 0.02734375 1.82421875 0.02734375 4 1 C5.43490884 3.18046972 6.63086418 5.25258873 7.8125 7.5625 C14.08312584 19.07272448 21.3424232 26.75205019 34.1875 30.8125 C47.65085603 34.36098143 60.03948398 34.17151216 72.54296875 27.6796875 C77.43638587 24.67970314 80.5388578 21.44521585 83.515625 16.5390625 C85 15 85 15 87.609375 14.7109375 C90 15 90 15 91 16 C91.16859379 20.04625097 90.73256197 22.04604153 88.2421875 25.2890625 C83.36786311 30.36719139 78.36677764 34.03816572 72 37 C71.35804687 37.30679688 70.71609375 37.61359375 70.0546875 37.9296875 C58.94659512 42.9788204 42.84177569 42.84805433 31.37109375 38.96484375 C30.58863281 38.64644531 29.80617188 38.32804688 29 38 C28.16597656 37.67128906 27.33195312 37.34257813 26.47265625 37.00390625 C14.13363959 31.50933643 3.71074566 20.49913412 -1.41796875 8.015625 C-2.18197784 5.36979487 -2.03421562 3.54576153 -1 1 C-0.67 0.67 -0.34 0.34 0 0 Z " fill="#7BCAE7" transform="translate(1007,792)"/>
<path d="M0 0 C0.99 0 1.98 0 3 0 C4.85534016 47.92962068 -6.54880999 99.91286674 -19 146 C-20.9375 146.5625 -20.9375 146.5625 -23 147 C-24 146 -24 146 -24.01953125 144.27734375 C-23.49132389 138.30760397 -22.23476723 132.70773868 -20.72167969 126.91479492 C-18.2941503 117.47547321 -16.47463744 107.91115267 -14.64111328 98.34179688 C-14.22251562 96.15986057 -13.79922164 93.97881854 -13.37060547 91.79882812 C-8.01001339 64.42166826 -4.34224175 36.47721142 -2.63208008 8.62402344 C-2.57431396 7.75938477 -2.51654785 6.89474609 -2.45703125 6.00390625 C-2.41553955 5.26986572 -2.37404785 4.5358252 -2.33129883 3.77954102 C-2 2 -2 2 0 0 Z " fill="#0F0F0F" transform="translate(1362,746)"/>
<path d="M0 0 C1.32 0.66 2.64 1.32 4 2 C3.50345016 4.41741367 3.00296075 6.83391527 2.5 9.25 C2.32766846 10.08152588 2.15533691 10.91305176 1.9777832 11.76977539 C0.78846985 17.44054492 -0.47825308 23.08942083 -1.80078125 28.73046875 C-10.73688539 67.08919339 -17.72251319 106.5741139 -19 146 C-20.9375 146.5625 -20.9375 146.5625 -23 147 C-24.85499006 145.14500994 -24.21823597 142.2381823 -24.25 139.75 C-24.23611947 115.7616689 -19.89548819 91.62271618 -16 68 C-15.81211914 66.85917969 -15.62423828 65.71835937 -15.43066406 64.54296875 C-12.91380629 49.55846793 -9.68478232 34.74839961 -6.3125 19.9375 C-6.11418579 19.05809753 -5.91587158 18.17869507 -5.71154785 17.27264404 C-5.1453485 14.77223315 -4.56868102 12.27449182 -3.98828125 9.77734375 C-3.81760635 9.02034683 -3.64693146 8.26334991 -3.47108459 7.4834137 C-2.23008543 2.23008543 -2.23008543 2.23008543 0 0 Z " fill="#0E0E0E" transform="translate(773,657)"/>
<path d="M0 0 C3.1875 0.75 3.1875 0.75 4.859375 2.71875 C6.68224974 6.87919353 6.6773258 10.50255459 6.625 15 C6.62032715 15.87446777 6.6156543 16.74893555 6.61083984 17.64990234 C6.43394381 25.60734756 6.10852192 38.82897808 0.1875 44.75 C-0.24820313 44.03714844 -0.68390625 43.32429687 -1.1328125 42.58984375 C-6.48554501 33.98144493 -11.31876417 27.35586565 -19.8125 21.75 C-16.41283885 12.69482779 -10.11179991 1.98920654 0 0 Z " fill="#393832" transform="translate(736.8125,749.25)"/>
<path d="M0 0 C1.60186157 -0.01891296 1.60186157 -0.01891296 3.23608398 -0.03820801 C4.95807007 -0.02606262 4.95807007 -0.02606262 6.71484375 -0.01367188 C7.89828369 -0.01749878 9.08172363 -0.02132568 10.30102539 -0.02526855 C12.80258027 -0.02798997 15.30416349 -0.02061291 17.80566406 -0.00390625 C21.63801424 0.01749809 25.46848949 -0.00370232 29.30078125 -0.02929688 C31.73047289 -0.02665364 34.16016337 -0.02152876 36.58984375 -0.01367188 C37.73783447 -0.0217688 38.8858252 -0.02986572 40.06860352 -0.03820801 C41.13651123 -0.02559937 42.20441895 -0.01299072 43.3046875 0 C44.7122229 0.00477356 44.7122229 0.00477356 46.14819336 0.00964355 C48.65234375 0.51757812 48.65234375 0.51757812 52.65234375 4.51757812 C32.19234375 4.51757812 11.73234375 4.51757812 -9.34765625 4.51757812 C-4.84651475 0.01643662 -4.84651475 0.01643662 0 0 Z " fill="#FDFCFC" transform="translate(984.34765625,1168.482421875)"/>
<path d="M0 0 C-2.08496014 2.46698676 -3.29539164 3.85972659 -6.51760864 4.50120544 C-7.46199799 4.50137161 -8.40638733 4.50153778 -9.37939453 4.50170898 C-10.45375763 4.51108994 -11.52812073 4.52047089 -12.63504028 4.53013611 C-13.78930511 4.51890213 -14.94356995 4.50766815 -16.1328125 4.49609375 C-17.91508743 4.4982766 -17.91508743 4.4982766 -19.73336792 4.50050354 C-22.24333144 4.49884412 -24.75330509 4.48727827 -27.26318359 4.46655273 C-31.11729828 4.43755794 -34.97004161 4.44595188 -38.82421875 4.45898438 C-41.26042339 4.45274848 -43.69662367 4.4443587 -46.1328125 4.43359375 C-47.29112579 4.43652939 -48.44943909 4.43946503 -49.64285278 4.44248962 C-50.71091156 4.42980545 -51.77897034 4.41712128 -52.87939453 4.40405273 C-53.82219269 4.39864975 -54.76499084 4.39324677 -55.73635864 4.38768005 C-56.48336029 4.25974564 -57.23036194 4.13181122 -58 4 C-58.66 3.01 -59.32 2.02 -60 1 C-52.41944823 0.85679914 -44.83888038 0.71447401 -37.25830078 0.57275391 C-34.680172 0.52445249 -32.10204696 0.47595157 -29.52392578 0.42724609 C-25.81543935 0.35722072 -22.10694005 0.28791588 -18.3984375 0.21875 C-16.67311295 0.18593933 -16.67311295 0.18593933 -14.91293335 0.15246582 C-13.83226593 0.13244507 -12.75159851 0.11242432 -11.63818359 0.09179688 C-10.2192128 0.06514954 -10.2192128 0.06514954 -8.77157593 0.03796387 C-5.84738155 -0.0020905 -2.92443178 -0.00633716 0 0 Z " fill="#FCFCFB" transform="translate(1037,1191)"/>
<path d="M0 0 C0.99 0 1.98 0 3 0 C3.71707402 8.89171782 1.30344433 15.0010937 -4.375 21.875 C-10.80868176 27.08321856 -16.4144638 29.16291967 -24.6875 29.0625 C-25.38939453 29.05798828 -26.09128906 29.05347656 -26.81445312 29.04882812 C-28.54300538 29.03706927 -30.27151365 29.01913454 -32 29 C-32.33 28.01 -32.66 27.02 -33 26 C-31.64068359 26.06960938 -31.64068359 26.06960938 -30.25390625 26.140625 C-22.49880673 26.37040573 -16.68067258 26.08263324 -10 22 C-9.071875 21.46375 -8.14375 20.9275 -7.1875 20.375 C-2.0382196 14.78435271 -0.54695493 7.3838915 0 0 Z " fill="#050504" transform="translate(1194,1072)"/>
<path d="M0 0 C0 0.99 0 1.98 0 3 C-3.77276152 2.50358401 -7.21342336 1.62783424 -10.8125 0.4375 C-21.04540846 -2.65829794 -30.99956905 -0.79330406 -40.625 3.6875 C-41.40875 4.120625 -42.1925 4.55375 -43 5 C-43.66 5 -44.32 5 -45 5 C-45 4.01 -45 3.02 -45 2 C-43.25197854 1.18325204 -41.50149811 0.37176549 -39.75 -0.4375 C-38.77546875 -0.88996094 -37.8009375 -1.34242187 -36.796875 -1.80859375 C-25.38366075 -6.67036797 -11.0556697 -4.85582355 0 0 Z " fill="#060605" transform="translate(1103,1386)"/>
<path d="M0 0 C0.66 0.33 1.32 0.66 2 1 C2 1.66 2 2.32 2 3 C-2.2749717 2.39294124 -6.11281231 1.34972095 -10.1875 -0.0625 C-19.62149309 -2.99656823 -27.13143826 -2.67404379 -36.4921875 0.34375 C-39.09916433 1.02594955 -41.31776901 1.11536477 -44 1 C-44 0.34 -44 -0.32 -44 -1 C-30.19831076 -8.09077612 -13.55572664 -6.91387396 0 0 Z " fill="#050504" transform="translate(944,1386)"/>
<path d="M0 0 C0.66 0 1.32 0 2 0 C3.09750047 8.15286066 -0.23959324 13.52807576 -5 20 C-9.8443989 25.63744985 -15.25521895 31.71606562 -22 35 C-23.32 35 -24.64 35 -26 35 C-26 34.34 -26 33.68 -26 33 C-24.97003906 32.4534375 -23.94007813 31.906875 -22.87890625 31.34375 C-19.07154191 29.15990328 -16.02526617 26.60199317 -12.9375 23.5 C-12.16152466 22.72257446 -12.16152466 22.72257446 -11.36987305 21.92944336 C-5.44487077 15.7318555 -1.40626116 8.51483406 0 0 Z " fill="#040403" transform="translate(788,984)"/>
<path d="M0 0 C3.77231622 1.09198627 7.10833074 2.54367046 10.5625 4.375 C19.94420784 9.13628716 29.50556603 11.5793814 40 12 C40.495 13.485 40.495 13.485 41 15 C26.76138941 15.85431664 10.97561206 11.22949196 0 2 C0 1.34 0 0.68 0 0 Z " fill="#050504" transform="translate(905,1315)"/>
<path d="M0 0 C0 0.66 0 1.32 0 2 C-1.72744016 2.65043719 -3.4570369 3.29514844 -5.1875 3.9375 C-6.15042969 4.29714844 -7.11335938 4.65679688 -8.10546875 5.02734375 C-13.78556883 6.93604135 -18.99580944 7.18264964 -24.9375 7.1875 C-26.11602539 7.20586914 -26.11602539 7.20586914 -27.31835938 7.22460938 C-31.94924909 7.23623504 -35.64207566 6.76975098 -40 5 C-40 4.34 -40 3.68 -40 3 C-39.25951416 3.01571045 -38.51902832 3.0314209 -37.75610352 3.04760742 C-34.35831527 3.11047539 -30.96064996 3.14915441 -27.5625 3.1875 C-26.39783203 3.21263672 -25.23316406 3.23777344 -24.03320312 3.26367188 C-17.80756783 3.31628288 -12.59415244 3.02014409 -6.79101562 0.66796875 C-4.48222753 -0.19310598 -2.43797088 -0.23593267 0 0 Z " fill="#040403" transform="translate(1100,1363)"/>
<path d="M0 0 C1.27617188 0.433125 1.27617188 0.433125 2.578125 0.875 C14.01080083 4.37777728 27.26256362 6.28159365 39 3 C39 3.99 39 4.98 39 6 C25.95027022 10.20416552 13.73898872 8.09990442 1 4 C0.67 2.68 0.34 1.36 0 0 Z " fill="#0A0A09" transform="translate(904,1361)"/>
<path d="M0 0 C-0.33 0.99 -0.66 1.98 -1 3 C-3.4765625 4.1328125 -3.4765625 4.1328125 -6.625 5.125 C-8.16027344 5.62386719 -8.16027344 5.62386719 -9.7265625 6.1328125 C-16.75336885 7.99432922 -23.59235441 8.18251715 -30.8125 8.1875 C-31.76576172 8.19974609 -32.71902344 8.21199219 -33.70117188 8.22460938 C-34.61060547 8.22654297 -35.52003906 8.22847656 -36.45703125 8.23046875 C-37.28178955 8.23457764 -38.10654785 8.23868652 -38.95629883 8.24291992 C-41 8 -41 8 -43 6 C-39.01049636 5.01567387 -35.52905286 5.04885103 -31.4375 5.25 C-22.18859848 5.35956251 -13.77495559 3.00608476 -4.93847656 0.45898438 C-3 0 -3 0 0 0 Z " fill="#040404" transform="translate(1101,1337)"/>
<path d="M0 0 C-0.1875 1.81640625 -0.1875 1.81640625 -1 4 C-11.69886704 11.68981069 -27.96219426 16.26717334 -41 15 C-41 14.34 -41 13.68 -41 13 C-39.43765625 12.77957031 -39.43765625 12.77957031 -37.84375 12.5546875 C-30.07096093 11.37145465 -22.68613636 9.8363419 -15.3125 7.0625 C-14.66667969 6.82192871 -14.02085938 6.58135742 -13.35546875 6.33349609 C-9.09705555 4.65529821 -4.40419425 0 0 0 Z " fill="#040403" transform="translate(1098,1316)"/>
<path d="M0 0 C1.175625 0.268125 2.35125 0.53625 3.5625 0.8125 C4.80386719 1.08126953 4.80386719 1.08126953 6.0703125 1.35546875 C8.15372811 1.81382018 10.2314484 2.29840062 12.3046875 2.80078125 C22.34100195 5.07783754 31.75375248 5.31689425 42 5 C41.67 5.99 41.34 6.98 41 8 C10.60445682 9.06963788 10.60445682 9.06963788 0 2 C0 1.34 0 0.68 0 0 Z " fill="#040403" transform="translate(903,1336)"/>
<path d="M0 0 C0.66 0 1.32 0 2 0 C3.79566532 11.77158374 -2.23561329 21.51353005 -8.58203125 30.984375 C-9.37996094 31.97953125 -10.17789062 32.9746875 -11 34 C-11.99 34 -12.98 34 -14 34 C-12.54165275 30.93973763 -10.85887664 28.04207146 -9.13110352 25.12719727 C-4.32735192 16.9694898 -1.01036687 9.49744857 0 0 Z " fill="#050504" transform="translate(1153,1036)"/>
<path d="M0 0 C0.66 0 1.32 0 2 0 C0.31363456 12.16335926 -6.28454755 22.92682132 -13 33 C-13.99 33 -14.98 33 -16 33 C-14.5002455 28.89097873 -12.48847494 25.31498222 -10.25 21.5625 C-6.17632141 14.61669114 -2.99705013 7.46992039 0 0 Z " fill="#050504" transform="translate(849,1017)"/>
<path d="M0 0 C0 0.99 0 1.98 0 3 C-6.88002171 5.62096065 -13.72176039 5.18170362 -21 5 C-21 4.34 -21 3.68 -21 3 C-20.13117187 2.95101563 -19.26234375 2.90203125 -18.3671875 2.8515625 C-17.21476563 2.77679687 -16.06234375 2.70203125 -14.875 2.625 C-13.16957031 2.52058594 -13.16957031 2.52058594 -11.4296875 2.4140625 C-7.51911268 1.94194299 -3.87191475 0 0 0 Z " fill="#020202" transform="translate(943,1364)"/>
<path d="M0 0 C7.26 0.33 14.52 0.66 22 1 C22 1.33 22 1.66 22 2 C17.71 2 13.42 2 9 2 C9 2.66 9 3.32 9 4 C4.545 3.01 4.545 3.01 0 2 C0 1.34 0 0.68 0 0 Z " fill="#100F0E" transform="translate(1060,1366)"/>
</svg>
